# xmcd
#
# Track frame offsets:
#	150
#	14165
#	32474
#	53091
#	70951
#	87529
#	96970
#	118971
#	133041
#	152760
#	166075
#	180402
#	195072
# Disc length: 2781 seconds
# Revision: 5
# Processed by: cddbd v1.5.1PL0 Copyright (c) Steve Scherf et al.
#
# Submitted via: libkcddb 0.10
#
DISCID=a70adb0d
DTITLE=Teco Seade - Viola Emprenhada
DYEAR=1993
DGENRE=Unknown
TTITLE0=Reduto de Violeiro
TTITLE1=Oracao a Dois
TTITLE2=Morena Perdicao
TTITLE3=Terra de Meus Pais
TTITLE4=Minas, Fogao e Viola
TTITLE5=Lua Namoradeira
TTITLE6=Terra-Mae
TTITLE7=Morena, Socorro, Moreno
TTITLE8=Brilhante
TTITLE9=Passarinho Espiao
TTITLE10=Saga de Um Brasileiro
TTITLE11=Viola Emprenhada
TTITLE12=Lamento
EXTD=
EXTT0=
EXTT1=
EXTT2=
EXTT3=
EXTT4=
EXTT5=
EXTT6=
EXTT7=
EXTT8=
EXTT9=
EXTT10=
EXTT11=
EXTT12=
PLAYORDER=
